<?xml version="1.0" standalone="no"?>
<!DOCTYPE svg PUBLIC "-//W3C//DTD SVG 20010904//EN"
 "http://www.w3.org/TR/2001/REC-SVG-20010904/DTD/svg10.dtd">
<svg version="1.0" xmlns="http://www.w3.org/2000/svg"
 width="300.000000pt" height="247.000000pt" viewBox="0 0 300.000000 247.000000"
 preserveAspectRatio="xMidYMid meet">
<metadata>
Created by potrace 1.10, written by Peter Selinger 2001-2011
</metadata>
<g transform="translate(0.000000,247.000000) scale(0.100000,-0.100000)"
fill="#000000" stroke="none">
<path d="M1397 1783 c-4 -3 -7 -19 -7 -34 0 -35 -27 -43 -57 -16 l-23 20 -25
-23 -25 -24 21 -22 c29 -31 18 -64 -22 -64 -27 0 -29 -3 -29 -35 0 -32 2 -35
29 -35 43 0 50 -32 17 -71 -15 -18 -26 -43 -26 -60 0 -16 -4 -29 -10 -29 -5 0
-10 -11 -10 -25 0 -14 5 -25 11 -25 6 0 9 -9 6 -19 -6 -25 24 -54 46 -45 11 4
19 0 23 -10 8 -21 54 -21 54 0 0 9 7 14 18 12 27 -4 51 19 45 42 -4 14 0 20
10 20 11 0 18 14 22 48 9 62 30 80 62 50 l23 -21 25 23 25 24 -26 27 c-21 22
-31 26 -67 22 -67 -8 -122 12 -137 48 -11 27 -11 34 7 57 18 25 27 27 95 30
67 2 78 6 102 31 l26 27 -25 24 -25 23 -22 -20 c-33 -29 -58 -19 -58 23 0 32
-2 34 -33 34 -19 0 -37 -3 -40 -7z m53 -43 c0 -23 5 -30 19 -30 11 0 23 -5 26
-11 5 -7 16 -3 31 12 20 18 26 20 39 9 14 -12 14 -15 0 -30 -12 -14 -36 -19
-97 -22 -69 -3 -82 -6 -99 -27 -27 -33 -25 -86 6 -116 21 -22 33 -25 98 -25
59 0 77 -4 91 -19 15 -16 15 -19 1 -31 -13 -11 -19 -10 -35 5 -30 27 -73 8
-81 -36 -4 -27 -7 -30 -14 -16 -4 10 -5 21 -1 24 11 11 -25 41 -43 36 -11 -3
-21 2 -24 11 -7 17 -32 12 -55 -11 -23 -23 -35 -2 -12 22 17 18 19 27 11 48
-8 21 -17 27 -41 27 -27 0 -31 3 -28 23 2 17 9 21 29 19 22 -2 29 3 38 29 9
27 8 35 -5 50 -16 18 -13 49 4 49 5 0 17 -9 26 -19 15 -16 22 -17 47 -8 22 9
29 18 29 39 0 21 5 28 20 28 16 0 20 -7 20 -30z m-98 -282 c3 -7 18 -13 34
-13 24 -2 29 -6 31 -30 1 -16 7 -31 14 -35 8 -6 7 -14 -5 -33 -9 -13 -15 -31
-14 -38 2 -8 -3 -13 -11 -11 -7 1 -24 -4 -37 -13 -22 -14 -26 -14 -40 0 -8 8
-24 15 -35 15 -12 0 -19 7 -19 19 0 11 -7 27 -16 35 -14 15 -14 17 0 32 9 8
16 24 16 35 0 12 7 19 20 19 10 0 25 7 32 15 16 18 25 19 30 3z"/>
<path d="M1301 1404 c-26 -33 -26 -49 -1 -74 25 -25 62 -26 83 -2 23 25 21 58
-3 82 -27 27 -55 25 -79 -6z m78 -16 c13 -33 -4 -58 -39 -58 -23 0 -31 5 -36
25 -8 31 10 55 43 55 15 0 27 -8 32 -22z"/>
<path d="M1647 1714 c-4 -4 -7 -17 -7 -29 0 -38 -19 -45 -117 -45 -55 0 -93
-4 -93 -10 0 -6 36 -10 89 -10 71 0 93 4 112 19 13 10 33 20 44 22 28 6 28 53
0 57 -12 2 -24 0 -28 -4z"/>
<path d="M1705 1651 c-3 -6 -17 -11 -29 -11 -13 0 -29 -7 -36 -15 -10 -12 -38
-15 -136 -15 -76 0 -124 -4 -124 -10 0 -6 46 -10 119 -10 93 0 121 3 131 15
15 18 53 20 79 3 26 -16 53 -3 49 24 -3 25 -41 37 -53 19z"/>
<path d="M1635 1590 c-4 -6 -58 -10 -131 -10 -76 0 -124 -4 -124 -10 0 -6 48
-10 124 -10 73 0 127 -4 131 -10 10 -15 45 -12 51 5 12 29 -35 61 -51 35z"/>
<path d="M1510 1533 c100 -4 126 -15 132 -57 4 -31 52 -30 56 2 2 14 -3 24
-15 28 -10 3 -30 12 -45 20 -18 10 -55 13 -125 12 l-98 -2 95 -3z"/>
<path d="M1830 990 c0 -64 3 -80 15 -80 11 0 15 12 15 45 0 38 3 45 20 45 23
0 27 -18 5 -26 -13 -5 -13 -9 1 -35 8 -16 21 -29 30 -29 13 0 13 2 0 21 -13
19 -13 24 0 44 13 20 13 24 -1 35 -8 7 -24 10 -35 7 -17 -4 -20 0 -20 24 0 19
-5 29 -15 29 -12 0 -15 -16 -15 -80z"/>
<path d="M883 985 l-1 -75 49 0 c27 0 49 5 49 10 0 6 -16 10 -35 10 -31 0 -35
3 -35 25 0 20 5 25 25 25 14 0 25 5 25 10 0 6 -11 10 -25 10 -18 0 -25 5 -25
20 0 16 7 20 35 20 19 0 35 5 35 10 0 6 -21 10 -48 10 l-48 0 -1 -75z"/>
<path d="M1355 1045 c-5 -11 -13 -23 -19 -27 -8 -6 -7 -10 1 -16 6 -4 13 -25
15 -47 2 -33 7 -41 26 -43 12 -2 22 1 22 7 0 6 -7 11 -15 11 -10 0 -15 11 -15
35 0 24 5 35 15 35 8 0 15 5 15 10 0 6 -6 10 -14 10 -8 0 -16 10 -19 23 -3 21
-4 21 -12 2z"/>
<path d="M1480 984 l0 -75 41 3 c51 4 71 27 51 59 -10 15 -10 24 -2 34 21 26
-5 55 -50 55 l-40 0 0 -76z m68 35 c3 -17 -23 -33 -39 -23 -5 3 -9 14 -9 25 0
15 6 20 22 17 13 -2 24 -10 26 -19z m0 -66 c3 -19 -1 -23 -22 -23 -21 0 -26 5
-26 26 0 21 4 25 23 22 14 -2 23 -11 25 -25z"/>
<path d="M1000 968 c5 -51 6 -53 35 -53 33 0 55 30 55 78 0 47 -28 33 -32 -15
-2 -31 -8 -44 -20 -46 -15 -3 -18 4 -18 42 0 31 -4 46 -13 46 -9 0 -11 -14 -7
-52z"/>
<path d="M1122 1008 c-17 -17 -15 -73 2 -87 17 -14 68 -11 64 3 -2 6 -12 10
-23 10 -26 1 -31 20 -6 24 48 8 50 62 2 62 -15 0 -32 -5 -39 -12z"/>
<path d="M1214 1004 c3 -9 6 -33 6 -55 0 -57 28 -54 32 4 2 29 8 42 18 42 10
0 16 -13 18 -42 2 -25 8 -43 15 -43 8 0 11 16 8 51 -3 55 -20 71 -52 50 -12
-7 -19 -7 -19 -1 0 5 -7 10 -16 10 -11 0 -14 -5 -10 -16z"/>
<path d="M1612 1008 c-15 -15 -16 -70 0 -86 16 -16 53 -15 67 2 7 8 11 32 9
53 -3 34 -6 38 -33 41 -17 2 -36 -3 -43 -10z m53 -43 c0 -39 -31 -48 -41 -11
-7 30 2 48 24 44 11 -2 17 -13 17 -33z"/>
<path d="M1726 1004 c-31 -31 -12 -94 29 -94 13 0 31 7 39 16 19 18 21 65 4
82 -17 17 -54 15 -72 -4z m54 -40 c0 -28 -3 -35 -17 -32 -12 2 -19 14 -21 36
-3 27 0 32 17 32 17 0 21 -6 21 -36z"/>
<path d="M1950 965 c0 -50 2 -55 22 -55 17 0 19 3 10 12 -7 7 -12 31 -12 55 0
24 -4 43 -10 43 -5 0 -10 -25 -10 -55z"/>
<path d="M2004 996 c3 -12 6 -36 6 -53 0 -18 5 -33 10 -33 6 0 10 15 10 33 0
31 14 57 32 57 4 0 8 -20 8 -45 0 -34 4 -45 16 -45 12 0 14 10 12 53 l-3 52
-48 1 c-44 1 -48 -1 -43 -20z"/>
<path d="M2136 1004 c-18 -18 -20 -47 -6 -75 12 -22 40 -25 59 -6 10 10 12 7
9 -13 -2 -21 -8 -25 -31 -23 -34 2 -32 -20 2 -25 39 -6 51 15 51 89 l0 69 -34
0 c-19 0 -42 -7 -50 -16z m52 -36 c-4 -44 -38 -53 -38 -10 0 32 7 42 27 42 10
0 13 -10 11 -32z"/>
</g>
</svg>
